HIERARCHY
ROOT hip
{
	OFFSET 0.000000 0.000000 0.000000 
	CHANNELS 6 Xposition Yposition Zposition Xrotation Zrotation Yrotation
	JOINT abdomen
	{
		OFFSET 0.000000 3.402643 0.000000 
		CHANNELS 3 Xrotation Zrotation Yrotation
		JOINT chest
		{
			OFFSET 0.000000 8.438565 -0.680529 
			CHANNELS 3 Xrotation Zrotation Yrotation
			JOINT neck
			{
				OFFSET 0.000000 10.207942 -0.272212 
				CHANNELS 3 Xrotation Zrotation Yrotation
				JOINT head
				{
					OFFSET 0.000000 3.130431 0.000000 
					CHANNELS 3 Xrotation Zrotation Yrotation
					End Site
					{
						OFFSET 0.000000 3.130435 0.000000 
					}
				}
			}
			JOINT lCollar
			{
				OFFSET 3.470700 6.669187 -0.816635 
				CHANNELS 3 Yrotation Zrotation Xrotation
				JOINT lShldr
				{
					OFFSET 3.198488 0.000000 0.000000 
					CHANNELS 3 Zrotation Yrotation Xrotation
					JOINT lForeArm
					{
						OFFSET 10.139888 0.000000 0.000000 
						CHANNELS 3 Yrotation Zrotation Xrotation
						JOINT lHand
						{
							OFFSET 8.370511 0.000000 0.000000 
							CHANNELS 3 Zrotation Yrotation Xrotation
							End Site
							{
								OFFSET 4.083176 0.000000 0.000000 
							}
						}
					}
				}
			}
			JOINT rCollar
			{
				OFFSET -3.470700 6.669187 -0.816635 
				CHANNELS 3 Yrotation Zrotation Xrotation
				JOINT rShldr
				{
					OFFSET -3.198488 0.000000 0.000000 
					CHANNELS 3 Zrotation Yrotation Xrotation
					JOINT rForeArm
					{
						OFFSET -10.139888 0.000000 0.000000 
						CHANNELS 3 Yrotation Zrotation Xrotation
						JOINT rHand
						{
							OFFSET -8.370511 0.000000 0.000000 
							CHANNELS 3 Zrotation Yrotation Xrotation
							End Site
							{
								OFFSET -4.083176 0.000000 0.000000 
							}
						}
					}
				}
			}
		}
	}
	JOINT lThigh
	{
		OFFSET 5.308129 -1.633274 1.361059 
		CHANNELS 3 Xrotation Zrotation Yrotation
		JOINT lShin
		{
			OFFSET -2.041588 -20.007561 0.000000 
			CHANNELS 3 Xrotation Zrotation Yrotation
			JOINT lFoot
			{
				OFFSET 0.000000 -19.190928 -1.224953 
				CHANNELS 3 Xrotation Yrotation Zrotation
				End Site
				{
					OFFSET 0.000000 -2.449906 4.627600 
				}
			}
		}
	}
	JOINT rThigh
	{
		OFFSET -5.308129 -1.633274 1.361059 
		CHANNELS 3 Xrotation Zrotation Yrotation
		JOINT rShin
		{
			OFFSET 2.041588 -20.007561 0.000000 
			CHANNELS 3 Xrotation Zrotation Yrotation
			JOINT rFoot
			{
				OFFSET 0.000000 -19.190928 -1.224953 
				CHANNELS 3 Xrotation Yrotation Zrotation
				End Site
				{
					OFFSET 0.000000 -2.449906 4.627600 
				}
			}
		}
	}
}
MOTION
Frames: 20
Frame Time: 0.016667
-0.170284 49.895332 1.062296 -12.341987 -2.320847 3.088149 35.460732 2.388918 7.956512 -15.581676 9.813270 6.869487 6.062273 -3.151329 -10.328410 13.266008 -2.500011 -10.068515 -2.481329 -5.038640 -0.009719 -62.562328 18.229422 13.441011 -70.582695 3.014420 36.619308 -4.341317 18.182890 -1.364679 15.019793 1.589266 -0.009699 52.562061 -1.624865 -14.808256 44.874046 -0.743198 7.395593 3.318035 7.581739 0.496741 -14.635432 7.381386 -3.647646 74.611923 1.515626 -4.162948 23.044754 -6.287302 -9.812670 -3.899767 1.394001 -2.645859 34.843700 0.951021 2.767463 -3.220046 -4.593367 11.802372 
-0.217109 50.148624 2.012654 -12.231623 -2.204164 2.921891 35.328972 2.499446 8.817182 -14.917796 8.855858 7.720405 5.804574 -3.280184 -10.858189 13.007949 -1.718068 -10.630124 -1.934465 -5.097327 -0.009721 -62.454834 18.963743 12.672792 -70.020767 2.964232 35.830448 -4.302456 18.680695 -1.387863 14.756065 1.247513 -0.009654 51.704002 -0.268067 -15.670528 45.646641 -0.662408 6.433760 -0.540691 5.644190 -0.062545 -16.569197 6.541804 -3.254925 72.664368 1.370013 -4.116543 22.012232 -6.523425 -9.842046 -2.427968 1.150120 -2.995024 34.307274 0.960670 2.724108 -3.144284 -3.789509 11.876456 
-0.306368 50.275539 2.956905 -12.114358 -2.155762 2.726353 35.281162 2.436785 9.510721 -14.774628 8.096877 8.405961 6.090292 -3.228040 -11.238962 12.565536 -0.939428 -11.007404 -1.553624 -5.204813 -0.009722 -62.341553 20.219610 11.701638 -69.481911 2.934710 35.417191 -3.947270 18.922459 -1.290488 14.765793 1.022902 -0.009616 51.074223 0.369774 -16.528555 46.734093 -0.562424 5.452261 -4.177849 4.103273 -0.259838 -17.986752 5.888071 -2.855081 69.517372 1.145736 -4.069193 21.300556 -6.716059 -9.830735 -1.347016 1.102376 -3.155773 34.442860 0.945474 2.765208 -3.287299 -3.277237 11.917366 
-0.395628 50.402458 3.901095 -11.987301 -2.107335 2.521058 35.231884 2.374001 10.204267 -14.641375 7.329716 9.088906 6.385109 -3.175880 -11.619746 12.124549 -0.172321 -11.386785 -1.172785 -5.322066 -0.009721 -62.255672 21.462543 10.724044 -68.946823 2.920969 35.011646 -3.601249 19.153776 -1.189755 14.765756 0.798292 -0.009578 50.448414 0.997596 -17.395021 47.826790 -0.482794 4.466154 -7.810914 2.543237 -0.358238 -19.394995 5.222177 -2.419837 66.379326 0.940114 -4.016509 20.567488 -6.945511 -9.849491 -0.271833 1.061682 -3.317746 34.599277 0.935596 2.770157 -3.465553 -2.703524 11.943492 
-0.498653 50.422096 4.860277 -11.866823 -2.097703 2.442987 35.193192 2.312548 10.712037 -14.574863 6.509847 9.604032 6.504249 -2.866421 -11.939457 11.762320 0.449433 -11.709308 -0.830949 -5.097515 -0.009726 -62.330845 22.676586 9.668727 -68.477097 2.905440 34.903610 -3.206565 19.063578 -1.056414 14.638804 0.808079 -0.009585 49.844498 1.712772 -18.357845 48.895729 -0.392277 3.493598 -10.025011 1.884860 -0.332955 -20.320364 4.696866 -2.195128 62.335121 0.658230 -3.939267 19.687719 -6.858694 -9.960979 0.680916 1.126725 -3.394707 35.057800 0.915812 2.806672 -4.056108 -2.414947 11.935126 
-0.601676 50.441727 5.819417 -11.745967 -2.078308 2.364559 35.151543 2.241529 11.219818 -14.522326 5.701708 10.109214 6.619956 -2.557595 -12.258544 11.405063 1.060209 -12.023552 -0.489114 -4.872963 -0.009730 -62.434391 23.892643 8.597971 -68.007965 2.908397 34.795021 -2.812488 18.982227 -0.921560 14.511853 0.817865 -0.009592 49.219330 2.423267 -19.316525 49.952900 -0.306572 2.529022 -12.229839 1.227050 -0.285854 -21.229450 4.179155 -1.964155 58.310829 0.375595 -3.824348 18.765823 -6.770352 -10.095309 1.639427 1.190383 -3.470241 35.506893 0.896179 2.832925 -4.630380 -2.097954 11.952157 
-0.707359 50.412811 6.793956 -11.601135 -2.127110 2.354792 35.064396 2.209516 11.639788 -14.430021 5.069873 10.530494 6.658533 -2.412011 -12.521107 11.168249 1.717420 -12.310195 -0.127759 -4.716775 -0.009733 -62.493874 24.991451 7.568411 -67.605209 2.893210 34.705402 -2.646332 18.926144 -0.865008 14.423956 0.769052 -0.009588 48.564423 3.011304 -20.333181 51.002544 -0.249720 1.863405 -13.888218 0.793991 -0.206350 -21.485481 3.787537 -1.895385 53.379230 0.064437 -3.643455 17.945324 -6.452832 -10.279734 2.630117 1.314882 -3.625030 35.897854 0.870761 2.844704 -5.191931 -1.773683 11.965079 
-0.813041 50.383884 7.768493 -11.465654 -2.166154 2.345397 34.979218 2.186942 12.069517 -14.335350 4.449065 10.952086 6.696171 -2.266581 -12.793503 10.927365 2.363717 -12.588998 0.223829 -4.570351 -0.009735 -62.584137 26.080481 6.528909 -67.197487 2.880005 34.620602 -2.487419 18.879940 -0.803098 14.326291 0.720240 -0.009584 47.905041 3.583326 -21.357630 52.051556 -0.198273 1.201518 -15.547320 0.361689 -0.120896 -21.770166 3.406856 -1.814751 48.454704 -0.201018 -3.458073 17.148460 -6.145932 -10.479791 3.627926 1.443097 -3.767190 36.288574 0.856980 2.859896 -5.728968 -1.474022 11.990911 
-0.923231 50.274574 8.764280 -11.298222 -2.302644 2.413692 34.856663 2.231717 12.421940 -14.243385 3.850364 11.266338 6.517013 -2.045870 -12.996940 10.864436 2.942605 -12.809905 0.565668 -4.326269 -0.009737 -62.712406 26.954924 5.617606 -66.782776 2.888756 34.711040 -2.272565 18.774977 -0.738792 14.130987 0.769100 -0.009600 47.246460 4.207734 -22.395086 53.074108 -0.149167 0.710010 -16.250326 0.294550 -0.106197 -21.509312 3.202335 -1.984748 42.816853 -0.530088 -3.214447 16.486284 -5.467908 -10.723202 4.542644 1.695980 -3.930443 36.825710 0.821750 2.885309 -6.275804 -1.210690 11.993583 
-1.033422 50.165253 9.760065 -11.140886 -2.448892 2.472618 34.736832 2.285804 12.774377 -14.149634 3.243179 11.591596 6.336295 -1.825493 -13.200231 10.808984 3.510930 -13.032607 0.907505 -4.091952 -0.009740 -62.848438 27.821951 4.695879 -66.370682 2.895003 34.790497 -2.054652 18.670149 -0.666004 13.925917 0.817962 -0.009617 46.568886 4.825674 -23.443962 54.102512 -0.099781 0.217606 -16.953331 0.218495 -0.087023 -21.235073 2.997011 -2.127262 37.184967 -0.806603 -2.956574 15.809472 -4.816204 -10.957600 5.472470 1.960219 -4.077474 37.352116 0.798413 2.933101 -6.812642 -0.993493 12.031260 
-1.137465 50.000797 10.788939 -10.949178 -2.663356 2.561274 34.550018 2.397373 13.058538 -14.136922 2.676388 11.829779 6.112598 -1.558150 -13.374196 10.934097 3.974589 -13.196136 1.171230 -3.779496 -0.009742 -62.970139 28.473045 4.001821 -65.844200 2.900587 34.828087 -2.012718 18.612041 -0.651554 13.730625 0.935182 -0.009645 45.997688 5.329262 -24.479048 55.078121 -0.087891 0.000000 -17.051018 0.237019 -0.093123 -20.455984 2.968097 -2.443143 31.150171 -1.104775 -2.594519 15.466247 -3.917488 -11.213966 6.394322 2.264638 -4.275204 37.899532 0.769024 2.940974 -7.153836 -0.714084 12.060521 
-1.241504 49.836334 11.817815 -10.758131 -2.877784 2.649518 34.367012 2.518020 13.353327 -14.119163 2.110544 12.069145 5.885212 -1.281632 -13.558222 11.063286 4.446929 -13.370983 1.434954 -3.476807 -0.009745 -63.107231 29.123999 3.290177 -65.310066 2.909758 34.866886 -1.970700 18.544165 -0.633754 13.525565 1.052404 -0.009673 45.421795 5.827389 -25.526482 56.045277 -0.062008 -0.212715 -17.158472 0.255506 -0.099329 -19.652918 2.958020 -2.743599 25.117718 -1.344300 -2.234333 15.094648 -3.016525 -11.477367 7.306014 2.574768 -4.487489 38.426262 0.743395 2.977961 -7.506156 -0.446790 12.107809 
-1.331766 49.640697 12.887747 -10.584571 -3.102080 2.679256 34.165905 2.610478 13.588773 -14.087560 1.727282 12.261684 5.657687 -1.138713 -13.664987 11.219753 4.863182 -13.467278 1.610765 -3.301056 -0.009746 -63.244457 29.549076 2.744975 -64.710800 2.914897 34.957672 -2.094176 18.533062 -0.673791 13.369326 1.111023 -0.009689 44.868286 6.217823 -26.459709 56.974167 -0.039186 -0.361929 -16.914108 0.078406 -0.044257 -18.243395 3.074899 -3.018333 18.937874 -1.533242 -1.858369 15.673805 -2.133596 -11.697845 8.209173 2.840039 -4.672898 39.060638 0.720152 3.011129 -7.459698 -0.039773 12.172158 
-1.422020 49.445057 13.957688 -10.400452 -3.316635 2.699835 33.955341 2.702817 13.814949 -14.058533 1.344561 12.454793 5.429461 -0.995961 -13.761890 11.385476 5.279319 -13.554567 1.786577 -3.125304 -0.009746 -63.384510 29.974951 2.188513 -64.112701 2.917440 35.033554 -2.217635 18.521883 -0.713785 13.203321 1.179410 -0.009706 44.323952 6.596642 -27.400949 57.903809 -0.028004 -0.513728 -16.669914 -0.108510 0.012086 -16.845125 3.201472 -3.280311 12.792177 -1.696587 -1.475658 16.221811 -1.274419 -11.912885 9.105877 3.093515 -4.856131 39.705269 0.684420 3.030675 -7.451051 0.395176 12.229096 
-1.488467 49.244797 15.090625 -10.299351 -3.462985 2.690078 33.724724 2.729657 13.951972 -14.019046 0.981679 12.589862 5.147383 -0.796502 -13.839378 11.672775 5.648635 -13.601787 1.923314 -3.017906 -0.009747 -63.323456 30.156645 2.009816 -63.505093 2.921419 35.096836 -2.300021 18.520891 -0.738601 13.027555 1.267330 -0.009728 43.948997 6.910551 -28.224045 58.827137 0.002346 -0.778586 -16.309124 -0.530355 0.134822 -14.846857 3.358210 -3.471807 6.889804 -1.805373 -1.070109 17.887077 -0.713146 -12.081311 10.046296 3.163093 -5.049838 40.388447 0.655037 3.063680 -6.883565 1.012095 12.296951 
-1.554915 49.044552 16.223572 -10.187366 -3.599610 2.671175 33.494236 2.756447 14.088991 -13.981272 0.619175 12.725437 4.874531 -0.597176 -13.916874 11.961766 6.008322 -13.650528 2.060049 -2.920273 -0.009747 -63.262482 30.338514 1.831337 -62.905132 2.941823 35.153625 -2.382268 18.510109 -0.763034 12.842025 1.365017 -0.009751 43.561825 7.223466 -29.054689 59.743362 0.019786 -1.048453 -15.949352 -0.951049 0.261595 -12.825933 3.514338 -3.658342 0.993975 -1.870240 -0.674646 19.541365 -0.125122 -12.278426 10.981918 3.240385 -5.261098 41.071613 0.622227 3.095217 -6.328815 1.626715 12.347725 
-1.588058 48.869560 17.416334 -10.151416 -3.521709 2.621840 33.267353 2.595647 14.067653 -13.921858 0.361910 12.773733 4.595884 -0.416987 -13.965249 12.284555 6.321218 -13.668620 2.099120 -2.871451 -0.009747 -63.145966 30.305006 1.888062 -62.305073 2.940084 35.268547 -2.434036 18.528963 -0.782421 12.724850 1.443161 -0.009769 43.345768 7.410616 -29.791759 60.683048 0.069808 -1.536165 -15.308897 -1.681789 0.439870 -12.943038 3.318868 -3.730781 1.111813 -1.881224 -0.651625 19.509811 0.129144 -12.348807 11.835387 2.919356 -5.646181 42.008724 0.563379 3.129364 -5.110877 2.549261 12.419323 
-1.621194 48.694576 18.609102 -10.115601 -3.443799 2.572518 33.040169 2.434921 14.036654 -13.874811 0.095221 12.822295 4.307167 -0.236875 -14.013831 12.599705 6.624588 -13.686002 2.138191 -2.822630 -0.009747 -63.027100 30.276203 1.962370 -61.717918 2.951784 35.369480 -2.492842 18.548088 -0.792594 12.607674 1.511540 -0.009784 43.135986 7.586821 -30.535334 61.613239 0.112426 -2.027421 -14.680840 -2.411503 0.621357 -13.066358 3.123272 -3.802116 1.207908 -1.878218 -0.647156 19.475807 0.383515 -12.419510 12.685074 2.607284 -6.054793 42.934498 0.507921 3.202195 -3.879133 3.440062 12.435525 
-1.617579 48.558025 19.857708 -10.252343 -3.141629 2.464194 32.889828 2.095448 13.857137 -13.802036 -0.057139 12.792973 4.125084 -0.132604 -14.091849 12.938818 6.898886 -13.724263 2.118649 -2.881221 -0.009747 -62.796185 30.055807 2.227103 -61.221588 2.947813 35.415981 -2.649463 18.682570 -0.848277 12.558857 1.579908 -0.009798 43.057388 7.628810 -31.105406 62.493832 0.173960 -2.705241 -14.004367 -3.112822 0.755815 -14.709682 2.586625 -3.727481 6.064338 -1.824700 -1.016501 17.950909 0.497875 -12.421803 13.301328 1.853225 -6.659430 44.320362 0.436134 3.251232 -1.744468 4.655685 12.341971 
-1.613952 48.421482 21.106314 -10.391119 -2.849135 2.366183 32.739300 1.745945 13.678496 -13.736715 -0.200011 12.763728 3.932948 -0.028407 -14.160159 13.269032 7.173402 -13.752005 2.099108 -2.939811 -0.009746 -62.563816 29.842415 2.498950 -60.728748 2.951990 35.457302 -2.809837 18.826164 -0.914340 12.510039 1.648275 -0.009811 42.976284 7.664750 -31.690016 63.366535 0.234728 -3.383635 -13.330165 -3.813065 0.892732 -16.358667 2.059922 -3.656782 10.895660 -1.728077 -1.348177 16.412910 0.612135 -12.431283 13.949671 1.112486 -7.278764 45.705139 0.331231 3.314691 0.400458 5.853975 12.197808 
